<svg aria-hidden="true" style="position: absolute; width: 0; height: 0; overflow: hidden;" version="1.1" xmlns="http://www.w3.org/2000/svg" xmlns:xlink="http://www.w3.org/1999/xlink">
<defs>
<symbol id="icon-facebook" viewBox="0 0 32 32">
<path  d="M21.329 5.313h2.921v-5.088c-0.504-0.069-2.237-0.225-4.256-0.225-4.212 0-7.097 2.649-7.097 7.519v4.481h-4.648v5.688h4.648v14.312h5.699v-14.311h4.46l0.708-5.688h-5.169v-3.919c0.001-1.644 0.444-2.769 2.735-2.769z"></path>
</symbol>
<symbol id="icon-instagram" viewBox="0 0 32 32">
<path  d="M31.969 9.408c-0.075-1.7-0.35-2.869-0.744-3.882-0.406-1.075-1.032-2.038-1.851-2.838-0.8-0.813-1.769-1.444-2.832-1.844-1.019-0.394-2.182-0.669-3.882-0.744-1.713-0.081-2.257-0.1-6.601-0.1s-4.888 0.019-6.595 0.094c-1.7 0.075-2.869 0.35-3.882 0.744-1.075 0.406-2.038 1.031-2.838 1.85-0.813 0.8-1.444 1.769-1.844 2.832-0.394 1.019-0.669 2.182-0.744 3.882-0.081 1.713-0.1 2.257-0.1 6.601s0.019 4.888 0.094 6.595c0.075 1.7 0.35 2.869 0.744 3.882 0.406 1.075 1.038 2.038 1.85 2.838 0.8 0.813 1.769 1.444 2.832 1.844 1.019 0.394 2.182 0.669 3.882 0.744 1.706 0.075 2.25 0.094 6.595 0.094s4.888-0.019 6.595-0.094c1.7-0.075 2.869-0.35 3.882-0.744 2.151-0.832 3.851-2.532 4.682-4.682 0.394-1.019 0.669-2.182 0.744-3.882 0.075-1.707 0.094-2.251 0.094-6.595s-0.006-4.888-0.081-6.595zM29.087 22.473c-0.069 1.563-0.331 2.407-0.55 2.969-0.538 1.394-1.644 2.5-3.038 3.038-0.563 0.219-1.413 0.481-2.969 0.55-1.688 0.075-2.194 0.094-6.464 0.094s-4.782-0.019-6.464-0.094c-1.563-0.069-2.407-0.331-2.969-0.55-0.694-0.256-1.325-0.663-1.838-1.194-0.531-0.519-0.938-1.144-1.194-1.838-0.219-0.563-0.481-1.413-0.55-2.969-0.075-1.688-0.094-2.194-0.094-6.464s0.019-4.782 0.094-6.464c0.069-1.563 0.331-2.407 0.55-2.969 0.256-0.694 0.663-1.325 1.2-1.838 0.519-0.531 1.144-0.938 1.838-1.194 0.563-0.219 1.413-0.481 2.969-0.55 1.688-0.075 2.194-0.094 6.464-0.094 4.276 0 4.782 0.019 6.464 0.094 1.563 0.069 2.407 0.331 2.969 0.55 0.694 0.256 1.325 0.662 1.838 1.194 0.531 0.519 0.938 1.144 1.194 1.838 0.219 0.563 0.481 1.413 0.55 2.969 0.075 1.688 0.094 2.194 0.094 6.464s-0.019 4.77-0.094 6.458z"></path>
<path  d="M16.059 7.783c-4.538 0-8.22 3.682-8.22 8.22s3.682 8.22 8.22 8.22c4.539 0 8.22-3.682 8.22-8.22s-3.682-8.22-8.22-8.22zM16.059 21.335c-2.944 0-5.332-2.388-5.332-5.332s2.388-5.332 5.332-5.332c2.944 0 5.332 2.388 5.332 5.332s-2.388 5.332-5.332 5.332z"></path>
<path  d="M26.524 7.458c0 1.060-0.859 1.919-1.919 1.919s-1.919-0.859-1.919-1.919c0-1.060 0.859-1.919 1.919-1.919s1.919 0.859 1.919 1.919z"></path>
</symbol>
<symbol id="icon-linkedin" viewBox="0 0 32 32">
<path  d="M31.992 32v-0.001h0.008v-11.736c0-5.741-1.236-10.164-7.948-10.164-3.227 0-5.392 1.771-6.276 3.449h-0.093v-2.913h-6.364v21.364h6.627v-10.579c0-2.785 0.528-5.479 3.977-5.479 3.399 0 3.449 3.179 3.449 5.657v10.401h6.62z"></path>
<path  d="M0.528 10.636h6.635v21.364h-6.635v-21.364z"></path>
<path  d="M3.843 0c-2.121 0-3.843 1.721-3.843 3.843s1.721 3.879 3.843 3.879c2.121 0 3.843-1.757 3.843-3.879-0.001-2.121-1.723-3.843-3.843-3.843v0z"></path>
</symbol>
<symbol id="icon-twitter" viewBox="0 0 32 32">
<path  d="M32 6.078c-1.19 0.522-2.458 0.868-3.78 1.036 1.36-0.812 2.398-2.088 2.886-3.626-1.268 0.756-2.668 1.29-4.16 1.588-1.204-1.282-2.92-2.076-4.792-2.076-3.632 0-6.556 2.948-6.556 6.562 0 0.52 0.044 1.020 0.152 1.496-5.454-0.266-10.28-2.88-13.522-6.862-0.566 0.982-0.898 2.106-0.898 3.316 0 2.272 1.17 4.286 2.914 5.452-1.054-0.020-2.088-0.326-2.964-0.808 0 0.020 0 0.046 0 0.072 0 3.188 2.274 5.836 5.256 6.446-0.534 0.146-1.116 0.216-1.72 0.216-0.42 0-0.844-0.024-1.242-0.112 0.85 2.598 3.262 4.508 6.13 4.57-2.232 1.746-5.066 2.798-8.134 2.798-0.538 0-1.054-0.024-1.57-0.090 2.906 1.874 6.35 2.944 10.064 2.944 12.072 0 18.672-10 18.672-18.668 0-0.29-0.010-0.57-0.024-0.848 1.302-0.924 2.396-2.078 3.288-3.406z"></path>
</symbol>



<svg aria-hidden="true" style="position: absolute; width: 0; height: 0; overflow: hidden;" version="1.1" xmlns="http://www.w3.org/2000/svg" xmlns:xlink="http://www.w3.org/1999/xlink">
<defs>
<symbol id="icon-email" viewBox="0 0 43 32">
<path  d="M38.667 0h-34.667c-2.206 0-4 1.794-4 4v24c0 2.206 1.794 4 4 4h34.667c2.206 0 4-1.794 4-4v-24c0-2.206-1.794-4-4-4zM38.667 2.667c0.181 0 0.353 0.038 0.511 0.103l-17.844 15.466-17.844-15.466c0.158-0.066 0.33-0.103 0.511-0.103h34.667zM38.667 29.333h-34.667c-0.736 0-1.333-0.598-1.333-1.333v-22.413l17.793 15.421c0.251 0.217 0.563 0.326 0.874 0.326s0.622-0.108 0.874-0.326l17.793-15.421v22.413c0 0.736-0.598 1.333-1.333 1.333z"></path>
</symbol>
<symbol id="icon-smartphone" viewBox="0 0 20 32">
<path  d="M17 0h-14c-1.654 0-3 1.346-3 3v26c0 1.654 1.346 3 3 3h14c1.654 0 3-1.346 3-3v-26c0-1.654-1.346-3-3-3zM3 2h14c0.552 0 1 0.448 1 1v21h-16v-21c0-0.552 0.448-1 1-1zM17 30h-14c-0.552 0-1-0.448-1-1v-3h16v3c0 0.552-0.448 1-1 1z"></path>
<path  d="M4.707 27.478c0.391 0.365 0.391 0.956 0 1.321s-1.024 0.365-1.414 0c-0.391-0.365-0.391-0.956 0-1.321s1.024-0.365 1.414 0z"></path>
</symbol>
</defs>
</svg>

<symbol id="icon-email-black" viewBox="0 0 32 32">
<path d="M26.667 5.333h-21.333c-1.467 0-2.653 1.2-2.653 2.667l-0.013 16c0 1.467 1.2 2.667 2.667 2.667h21.333c1.467 0 2.667-1.2 2.667-2.667v-16c0-1.467-1.2-2.667-2.667-2.667zM26.133 11l-9.427 5.893c-0.427 0.267-0.987 0.267-1.413 0l-9.427-5.893c-0.333-0.213-0.533-0.573-0.533-0.96 0-0.893 0.973-1.427 1.733-0.96l8.933 5.587 8.933-5.587c0.76-0.467 1.733 0.067 1.733 0.96 0 0.387-0.2 0.747-0.533 0.96z"></path>
</symbol>
<symbol id="icon-person-black" viewBox="0 0 32 32">
<path d="M16 16c2.947 0 5.333-2.387 5.333-5.333s-2.387-5.333-5.333-5.333c-2.947 0-5.333 2.387-5.333 5.333s2.387 5.333 5.333 5.333zM16 18.667c-3.56 0-10.667 1.787-10.667 5.333v1.333c0 0.733 0.6 1.333 1.333 1.333h18.667c0.733 0 1.333-0.6 1.333-1.333v-1.333c0-3.547-7.107-5.333-10.667-5.333z"></path>
</symbol>
<symbol id="icon-phone-black" viewBox="0 0 32 32">
<path d="M24.882 19.773l-3.268-0.373c-0.785-0.090-1.557 0.18-2.11 0.733l-2.367 2.367c-3.641-1.853-6.626-4.825-8.478-8.478l2.38-2.38c0.553-0.553 0.823-1.325 0.733-2.11l-0.373-3.242c-0.154-1.299-1.248-2.277-2.56-2.277h-2.226c-1.454 0-2.663 1.209-2.573 2.663 0.682 10.987 9.469 19.761 20.443 20.443 1.454 0.090 2.663-1.119 2.663-2.573v-2.226c0.013-1.3-0.965-2.393-2.264-2.547z"></path>
</symbol>

<symbol id="icon-icon-send" viewBox="0 0 32 32">
<path fill="#fff" style="fill: var(--color1, #fff)" d="M32 0l-32 18 10.227 3.788 15.773-14.788-11.998 16.186 0.010 0.004-0.012-0.004v8.814l5.735-6.691 7.265 2.691 5-28z"></path>
</symbol>


<symbol id="antenna" width="70" height="70" viewBox="0 0 70 70"  xmlns="http://www.w3.org/2000/svg">
<path d="M67.3163 48.3385L48.8468 29.7337L50.8966 19.6373C51.4256 19.8438 51.9879 19.9517 52.5556 19.9558H52.5696C55.1777 19.9866 57.3169 17.8974 57.3479 15.2893C57.3788 12.6812 55.2894 10.542 52.6813 10.5111C50.0732 10.4803 47.934 12.5695 47.9031 15.1776C47.8965 15.7357 47.9888 16.2905 48.176 16.8163L37.326 18.1405L19.6276 0.35C19.4105 0.128479 19.1141 0.00247917 18.804 0C18.4977 0.00160417 18.2044 0.123521 17.9873 0.3395L14.6786 3.6295C14.2232 4.08508 14.2232 4.82358 14.6786 5.27917L16.459 7.08517C9.56162 19.7681 11.8019 35.4741 21.9703 45.7228C22.0636 45.8121 22.1718 45.8843 22.29 45.9363C22.2165 46.3311 22.1781 46.7317 22.1756 47.1333V60.6667H8.17562C4.95562 60.6705 2.34608 63.28 2.34229 66.5V68.8333C2.34229 69.4776 2.86466 70 3.50895 70H57.1756C57.8199 70 58.3423 69.4776 58.3423 68.8333V66.5C58.3385 63.28 55.729 60.6705 52.509 60.6667H38.509V54.6688C40.7021 55.1288 42.9367 55.3633 45.1776 55.3688C50.5548 55.363 55.8464 54.0225 60.5776 51.4675L62.3673 53.2677C62.5844 53.4892 62.8808 53.6152 63.191 53.6177C63.4972 53.6161 63.7905 53.4941 64.0076 53.2782L67.3163 49.9882C67.7717 49.5326 67.7717 48.7941 67.3163 48.3385ZM50.9246 13.6348C51.8383 12.726 53.3157 12.7301 54.2244 13.6437C55.1332 14.5574 55.1291 16.0348 54.2155 16.9435C53.7781 17.3785 53.1864 17.6226 52.5695 17.6225H52.5625C51.2739 17.6158 50.2345 16.5658 50.2412 15.2771C50.2445 14.6602 50.4918 14.0699 50.9291 13.6348H50.9246ZM48.1783 21.301L46.8693 27.7445L44.298 25.158L48.1783 21.301ZM46.853 19.3282L42.653 23.5037L39.4038 20.237L46.853 19.3282ZM52.509 63C54.442 63 56.009 64.567 56.009 66.5V67.6667H4.67562V66.5C4.67562 64.567 6.2426 63 8.17562 63H52.509ZM36.1756 58.3333V60.6667H24.509V58.3333H36.1756ZM24.509 56V47.1333C24.509 44.303 27.1258 42 30.3423 42C33.5588 42 36.1756 44.303 36.1756 47.1333V56H24.509ZM38.509 52.29V47.1333C38.509 43.0162 34.8456 39.6667 30.3423 39.6667C27.4306 39.622 24.7079 41.1041 23.165 43.5738C14.2887 34.2249 12.2899 20.2875 18.1805 8.82073L58.872 49.7455C52.5886 52.9419 45.3857 53.8418 38.509 52.29ZM63.2038 50.7943L61.56 49.1412L18.7923 6.11567L17.1415 4.46133L18.7923 2.81633L36.15 20.272C36.1581 20.272 36.1628 20.2872 36.171 20.293L64.8593 49.1493L63.2038 50.7943Z" fill="#212121"/>
<path d="M30.3528 44.3333H30.3423C28.4093 44.3304 26.84 45.895 26.837 47.8281C26.8341 49.7611 28.3988 51.3304 30.3318 51.3333H30.3423C32.2753 51.3362 33.8446 49.7716 33.8475 47.8386C33.8505 45.9055 32.2858 44.3362 30.3528 44.3333ZM31.1695 48.6605C30.9498 48.8789 30.6522 49.0012 30.3423 49C29.698 48.9966 29.1784 48.4716 29.1817 47.8273C29.1834 47.5189 29.307 47.2237 29.5256 47.0062C29.7428 46.7902 30.036 46.6683 30.3423 46.6667C30.9866 46.67 31.5062 47.195 31.5028 47.8393C31.5012 48.1477 31.3776 48.4429 31.159 48.6605H31.1695Z" fill="#2196F3"/>
</symbol>

<symbol id="clock" width="70" height="70"  xmlns="http://www.w3.org/2000/svg"><g clip-path="url(#a)"><path d="M68.461 33.471C68.458 14.982 53.466-.004 34.975 0 16.485.004 1.5 14.996 1.504 33.486A33.479 33.479 0 0 0 24.799 65.37c.133.042.27.063.41.063.263 0 .521-.071.748-.205.296-.175.516-.453.62-.78l8.454-26.797a4.184 4.184 0 1 0-1.837-7.95L22.025 18.53a1.395 1.395 0 0 0-1.972 1.973l11.163 11.176a4.104 4.104 0 0 0 1.173 5.051l-8.055 25.535C8.414 56.4.262 38.74 6.126 22.82 11.991 6.9 29.65-1.252 45.571 4.613c15.92 5.864 24.072 23.524 18.207 39.444A30.72 30.72 0 0 1 47.455 61.5l-.87-4.1a1.394 1.394 0 0 0-2.294-.752l-8.393 7.494a1.394 1.394 0 0 0 .505 2.372l10.716 3.42a1.394 1.394 0 0 0 1.791-1.619l-.855-4.022a33.37 33.37 0 0 0 20.406-30.82Zm-33.478-1.394a1.395 1.395 0 1 1 0 2.79 1.395 1.395 0 0 1 0-2.79Zm4.594 32.515 4.778-4.262 1.319 6.213-6.097-1.951Z" fill="#212121"/><path d="M33.588 6.967v2.79a1.395 1.395 0 1 0 2.79 0v-2.79a1.395 1.395 0 0 0-2.79 0ZM8.479 32.077a1.395 1.395 0 0 0 0 2.79h2.79a1.395 1.395 0 1 0 0-2.79h-2.79ZM61.487 34.867a1.395 1.395 0 1 0 0-2.79h-2.79a1.395 1.395 0 0 0 0 2.79h2.79Z" fill="#2196F3"/></g><defs><clipPath id="a"><path fill="#fff" d="M0 0h70v70H0z"/></clipPath></defs></symbol>

<symbol id="diagram" width="70" height="70"  xmlns="http://www.w3.org/2000/svg"><g clip-path="url(#a)"><path d="M32.65 32.735h2.332V43.23H32.65V32.735ZM41.978 37.4h2.332v5.83h-2.332V37.4ZM23.321 40.898h2.332v2.332h-2.332v-2.332ZM16.325 39.731h2.332v3.498h-2.332v-3.498Z" fill="#2196F3"/><path d="M3.498 61.886h55.97a3.498 3.498 0 0 0 3.499-3.498v-4.664a3.498 3.498 0 0 0-3.498-3.498h-1.166v-29.08l6.623-6.274a3.518 3.518 0 1 0-1.633-1.668l-4.99 4.73v-2.69a3.498 3.498 0 0 0-3.498-3.498H8.162a3.498 3.498 0 0 0-3.498 3.498v34.982H3.498A3.498 3.498 0 0 0 0 53.724v4.664a3.498 3.498 0 0 0 3.498 3.498ZM66.465 10.58a1.166 1.166 0 1 1 0 2.332 1.166 1.166 0 0 1 0-2.332ZM6.996 15.244c0-.644.522-1.166 1.166-1.166h46.643c.644 0 1.166.522 1.166 1.166v4.897l-2.332 2.216v-4.78c0-.645-.523-1.167-1.167-1.167H10.495c-.644 0-1.167.522-1.167 1.166v29.152c0 .644.523 1.166 1.167 1.166h41.977c.645 0 1.167-.522 1.167-1.166V25.565l2.332-2.21v26.87H6.996v-34.98Zm10.495 15.159a3.498 3.498 0 1 0 2.422 6.012l4.053 2.034c.471.235 1.042.125 1.392-.268l8.616-9.694 8.47 6.347c.455.34 1.089.304 1.501-.086l7.361-6.973v17.787H11.661v-26.82h39.645v5.82l-8.25 7.813-8.54-6.403a1.167 1.167 0 0 0-1.572.157l-8.734 9.828-3.265-1.633c.023-.14.038-.281.044-.423a3.498 3.498 0 0 0-3.498-3.498Zm1.166 3.498a1.166 1.166 0 1 1-2.332 0 1.166 1.166 0 0 1 2.332 0Zm6.996 18.657h11.66v1.166c0 .644-.521 1.166-1.165 1.166h-9.329a1.166 1.166 0 0 1-1.166-1.166v-1.166Zm-23.32 1.166c0-.644.521-1.166 1.165-1.166h19.823v1.166a3.498 3.498 0 0 0 3.498 3.498h9.329a3.498 3.498 0 0 0 3.498-3.498v-1.166h19.823c.644 0 1.166.522 1.166 1.166v4.664c0 .644-.522 1.166-1.166 1.166H3.499a1.166 1.166 0 0 1-1.167-1.166v-4.664Z" fill="#212121"/></g><defs><clipPath id="a"><path fill="#fff" d="M0 0h70v70H0z"/></clipPath></defs></symbol>

<symbol id="astronaut" width="70" height="70"  xmlns="http://www.w3.org/2000/svg"><path d="M69.943 9.896a1.168 1.168 0 0 0-.941-.793l-4.18-.608-1.87-3.787c-.391-.798-1.7-.798-2.091 0l-1.87 3.787-4.18.608a1.167 1.167 0 0 0-.648 1.99l3.026 2.948-.714 4.162c-.075.438.105.88.463 1.142.363.263.837.296 1.23.088l3.738-1.966 3.738 1.966a1.168 1.168 0 0 0 1.693-1.23l-.714-4.162 3.025-2.949a1.17 1.17 0 0 0 .295-1.196ZM64.556 12.8c-.275.267-.4.655-.335 1.033l.417 2.437-2.188-1.15a1.165 1.165 0 0 0-1.088 0l-2.188 1.15.417-2.437a1.168 1.168 0 0 0-.334-1.033l-1.773-1.727 2.448-.355c.38-.055.708-.294.879-.639l1.094-2.216 1.094 2.216c.17.345.498.584.879.639l2.448.355-1.77 1.727ZM57.167 44.892h-2.333v2.334h2.333v-2.334ZM57.167 49.56h-2.333v2.332h2.333V49.56ZM59.5 47.226h-2.333v2.333H59.5v-2.333ZM54.834 47.226H52.5v2.333h2.334v-2.333ZM49 57.726h-2.333v2.333H49v-2.333ZM49 62.393h-2.333v2.333H49v-2.333ZM51.334 60.06H49v2.333h2.334v-2.334ZM46.667 60.06h-2.334v2.333h2.334v-2.334ZM35 53.06h-2.333v2.333H35v-2.334ZM35 57.726h-2.333v2.333H35v-2.333ZM37.333 55.392H35v2.334h2.333v-2.334ZM32.667 55.392h-2.334v2.334h2.334v-2.334ZM12.833 13.392H10.5v2.333h2.333v-2.333ZM12.833 18.059H10.5v2.333h2.333V18.06ZM15.166 15.725h-2.333v2.334h2.333v-2.334ZM10.5 15.725H8.166v2.334H10.5v-2.334Z" fill="#2196F3"/><path d="M54.063 30.974a3.88 3.88 0 0 0-2.599-1.541 3.886 3.886 0 0 0-2.93.77L45.794 32.3l-.001.002-4.151 3.1-2.97-1.184c5.296-2.376 8.998-7.674 8.998-13.825 0-8.363-6.83-15.167-15.227-15.167s-15.228 6.804-15.228 15.167c0 3.031.907 5.85 2.45 8.222l-6.046-.053h-.01c-.019 0-.034.01-.051.01a1.14 1.14 0 0 0-.34.069c-.028.01-.057.016-.084.029-.014.006-.028.007-.042.014l-7.072 3.491c-.001 0-.003 0-.003.002l-4.141 1.991a.905.905 0 0 0-.138.077A3.895 3.895 0 0 0 .43 39.268a3.884 3.884 0 0 0 2.31 1.944 3.891 3.891 0 0 0 3.016-.281l3.036-1.614 4.952-2.558 2.968-.017L4.808 48.588c0 .002-.002.002-.003.003l-2.928 2.916a3.607 3.607 0 0 0-1.073 2.577 3.647 3.647 0 0 0 3.652 3.64c.936 0 1.869-.355 2.582-1.062l2.875-2.863 3.808-2.843 1.97 1.962-3.853 3.837-.004.002-2.928 2.917a3.607 3.607 0 0 0-1.073 2.576c0 .973.38 1.889 1.073 2.579a3.65 3.65 0 0 0 2.58 1.061c.935 0 1.87-.354 2.582-1.061l2.93-2.917 4.686-4.667.002-.003 2.21-2.188-.01-.008c.015-.014.035-.019.049-.034l11.3-12.377 7.593 1.08c.055.008.11.012.165.012.14 0 .277-.034.41-.084.038-.014.071-.033.108-.051.042-.021.086-.033.126-.06l7.029-4.666c.026-.018.04-.046.064-.065.028-.022.063-.031.089-.056l2.78-2.605a3.892 3.892 0 0 0 .465-5.166ZM4.66 38.872a1.56 1.56 0 0 1-1.221.113 1.565 1.565 0 0 1-.465-2.755l2.874-1.383.692 2.022.29.85-2.17 1.153Zm7.65-3.998-3.387 1.75-.558-1.633-.402-1.174 4.434-2.189-.087 3.246Zm33.03-14.482c0 2.009-.48 3.904-1.31 5.599l-9.147-4.155a4.07 4.07 0 0 0-1.724-3.035l3.203-10.633c5.2 1.655 8.978 6.507 8.978 12.224Zm-25.788 0c0-7.076 5.784-12.834 12.894-12.834.553 0 1.094.047 1.63.115L30.943 18.07c-.042 0-.081-.013-.125-.013a4.094 4.094 0 0 0-4.096 4.084 4.095 4.095 0 0 0 4.096 4.083c1.52 0 2.832-.838 3.54-2.066l8.45 3.838c-2.352 3.165-6.114 5.228-10.362 5.228-7.11 0-12.894-5.757-12.894-12.833Zm13.03 1.75c0 .965-.792 1.75-1.764 1.75a1.759 1.759 0 0 1-1.762-1.75c0-.965.79-1.75 1.762-1.75s1.763.785 1.763 1.75ZM5.391 55.007a1.33 1.33 0 0 1-1.87.002 1.3 1.3 0 0 1 0-1.847l2.105-2.097L7.49 52.92l-2.097 2.088Zm7.03 8.167a1.33 1.33 0 0 1-1.87.002 1.299 1.299 0 0 1 0-1.847l2.106-2.098.88.876.983.978-2.099 2.09Zm7.616-7.588-.003.003-3.86 3.85-.882-.877-.982-.977 3.857-3.84v-.001l.004-.002c.087-.088.142-.193.196-.297.015-.03.044-.056.057-.087.036-.09.042-.187.056-.281.007-.054.03-.104.03-.16 0-.077-.028-.153-.044-.23-.014-.07-.014-.141-.041-.209a1.166 1.166 0 0 0-.2-.301c-.022-.026-.03-.058-.054-.083h-.002s0-.003-.002-.005l-3.515-3.5c-.037-.037-.085-.052-.127-.084a1.122 1.122 0 0 0-.19-.126 1.091 1.091 0 0 0-.204-.07 1.134 1.134 0 0 0-.226-.044 1.142 1.142 0 0 0-.209.01c-.078.01-.151.02-.227.045-.074.023-.139.06-.206.098-.044.024-.093.033-.133.063l-3.88 2.896-1.97-1.963 5.248-5.22 9.538 9.382-2.029 2.01Zm14.917-15.349c-.034-.005-.066.008-.1.006a1.148 1.148 0 0 0-.252.015 1.081 1.081 0 0 0-.404.15c-.065.04-.124.081-.181.134-.028.024-.062.036-.088.064L23.653 51.862l-9.468-9.311 6.197-6.165a1.168 1.168 0 0 0-.83-1.993l-4.854.028.061-3.516 6.79.058a15.2 15.2 0 0 0 10.897 4.596c.957 0 1.89-.1 2.799-.268.087.07.174.14.283.185l5.272 2.1.333 1.659.39 1.937-6.569-.935Zm8.84.39-.685-3.408 3.164-2.363.828 1.1 1.242 1.649-4.55 3.022Zm8.21-6.193-1.832 1.717-2.037-2.704 1.818-1.394c.34-.261.768-.368 1.188-.313.422.06.796.28 1.05.622a1.562 1.562 0 0 1-.187 2.072Z" fill="#212121"/><path d="m29.755 40.565-4.688-4.667a1.166 1.166 0 0 0-1.646 0l-4.687 4.667a1.172 1.172 0 0 0 0 1.654l4.686 4.667a1.166 1.166 0 0 0 1.647 0l4.688-4.667a1.167 1.167 0 0 0 0-1.654Zm-5.51 3.848-3.034-3.02 3.033-3.021 3.035 3.02-3.035 3.02ZM37.547 11.092l-.564 2.266c.156.039 3.801.988 3.801 4.7h2.334c0-4.412-3.644-6.486-5.571-6.966ZM43.118 20.392h-2.334v2.333h2.334v-2.333Z" fill="#212121"/></symbol>


<svg aria-hidden="true" style="position: absolute; width: 0; height: 0; overflow: hidden;" version="1.1" xmlns="http://www.w3.org/2000/svg" xmlns:xlink="http://www.w3.org/1999/xlink">
<defs>
<symbol id="icon-close" viewBox="0 0 32 32">
<path d="M32 3.223l-3.223-3.223-12.777 12.777-12.777-12.777-3.223 3.223 12.777 12.777-12.777 12.777 3.223 3.223 12.777-12.777 12.777 12.777 3.223-3.223-12.777-12.777 12.777-12.777z"></path>
</symbol>







<svg aria-hidden="true" style="position: absolute; width: 0; height: 0; overflow: hidden;" version="1.1" xmlns="http://www.w3.org/2000/svg" xmlns:xlink="http://www.w3.org/1999/xlink">
<defs>
<symbol id="icon-foster" viewBox="0 0 65 32">
<path  d="M10.016 9.983h-0.002c-1.827 0-3.308 1.316-3.308 2.94v0.002c0 1.624 1.481 2.94 3.308 2.94h0.002c1.827 0 3.308-1.317 3.308-2.94v-0.002c0-1.624-1.481-2.941-3.308-2.941zM34.434 9.044c-0.005-2.255-1.016-4.418-2.81-6.012s-4.226-2.493-6.763-2.498c-2.539 0.004-4.972 0.902-6.767 2.497s-2.806 3.757-2.811 6.013v12.437s19.15-1.896 19.152-12.434v-0.002zM0 25.562c0.005 1.57 0.709 3.073 1.957 4.183s2.94 1.735 4.706 1.739c1.765-0.005 3.457-0.63 4.706-1.739s1.952-2.613 1.957-4.181v-8.654s-13.324 1.32-13.324 8.652zM6.662 27.112c-0.345 0-0.682-0.091-0.969-0.261-0.279-0.164-0.499-0.401-0.638-0.686l-0.004-0.009c-0.084-0.173-0.132-0.377-0.132-0.592 0-0.107 0.012-0.212 0.035-0.312l-0.002 0.009c0.067-0.301 0.233-0.578 0.477-0.794 0.243-0.214 0.547-0.364 0.882-0.423l0.011-0.002c0.103-0.019 0.221-0.030 0.341-0.030 0.239 0 0.469 0.043 0.68 0.122l-0.013-0.004c0.319 0.117 0.592 0.316 0.783 0.571s0.294 0.555 0.294 0.861c0.001 0.204-0.043 0.407-0.131 0.596-0.094 0.198-0.221 0.366-0.376 0.503l-0.002 0.001c-0.162 0.145-0.354 0.259-0.567 0.338-0.199 0.075-0.428 0.119-0.668 0.119-0 0-0.001 0-0.001 0h0v-0.006zM20.128 26.258h-1.286v1.328h-0.67v-3.251h2.117v0.542h-1.447v0.84h1.286v0.54zM23.346 26.035c0 0.32-0.056 0.6-0.169 0.841s-0.276 0.427-0.488 0.558c-0.199 0.124-0.44 0.197-0.698 0.197-0.008 0-0.017-0-0.025-0l0.001 0c-0.27 0-0.51-0.065-0.722-0.194-0.213-0.134-0.382-0.322-0.487-0.546l-0.003-0.008c-0.112-0.236-0.177-0.512-0.177-0.804 0-0.009 0-0.019 0-0.028l-0 0.001v-0.16c0-0.32 0.058-0.602 0.172-0.844 0.116-0.244 0.279-0.431 0.489-0.56 0.211-0.131 0.452-0.197 0.723-0.197s0.51 0.066 0.721 0.197c0.211 0.13 0.374 0.316 0.489 0.56 0.116 0.242 0.174 0.523 0.174 0.841v0.145zM22.668 25.887c0-0.341-0.061-0.6-0.183-0.777-0.108-0.161-0.29-0.266-0.496-0.266-0.009 0-0.018 0-0.028 0.001l0.001-0c-0.008-0-0.016-0.001-0.025-0.001-0.205 0-0.387 0.104-0.494 0.262l-0.001 0.002c-0.122 0.174-0.184 0.43-0.185 0.768v0.158c0 0.331 0.061 0.589 0.183 0.772s0.297 0.274 0.527 0.274c0.008 0 0.017 0.001 0.026 0.001 0.204 0 0.384-0.104 0.49-0.261l0.001-0.002c0.12-0.177 0.181-0.434 0.183-0.773v-0.158zM25.518 26.733c0-0.006 0.001-0.012 0.001-0.019 0-0.11-0.052-0.208-0.133-0.27l-0.001-0.001c-0.089-0.069-0.25-0.14-0.482-0.214-0.214-0.067-0.396-0.142-0.57-0.232l0.019 0.009c-0.37-0.2-0.554-0.469-0.554-0.806 0-0.175 0.049-0.332 0.147-0.469 0.1-0.139 0.242-0.246 0.427-0.324 0.186-0.077 0.395-0.116 0.625-0.116 0.232 0 0.439 0.042 0.621 0.127 0.181 0.084 0.322 0.201 0.421 0.355 0.101 0.152 0.152 0.328 0.152 0.522h-0.67c0-0.149-0.046-0.264-0.14-0.346-0.094-0.084-0.226-0.125-0.395-0.125-0.164 0-0.291 0.035-0.382 0.105-0.083 0.060-0.136 0.156-0.136 0.265 0 0.003 0 0.005 0 0.008v-0c0 0.106 0.053 0.194 0.158 0.266 0.107 0.071 0.264 0.138 0.471 0.2 0.381 0.114 0.658 0.257 0.833 0.427s0.261 0.381 0.261 0.634c0 0.281-0.107 0.503-0.32 0.663s-0.498 0.239-0.859 0.239c-0.25 0-0.478-0.046-0.683-0.137-0.193-0.082-0.352-0.211-0.469-0.373l-0.002-0.003c-0.1-0.15-0.16-0.335-0.16-0.533 0-0.007 0-0.014 0-0.022l-0 0.001h0.671c0 0.358 0.214 0.538 0.643 0.538 0.159 0 0.283-0.032 0.373-0.096 0.081-0.058 0.134-0.153 0.134-0.259 0-0.004-0-0.009-0-0.013l0 0.001zM29.092 24.878h-0.995v2.708h-0.67v-2.708h-0.981v-0.542h2.647v0.542zM31.431 26.178h-1.285v0.871h1.509v0.538h-2.178v-3.251h2.174v0.542h-1.505v0.775h1.286v0.524zM33.25 26.396h-0.533v1.19h-0.67v-3.251h1.208c0.384 0 0.68 0.086 0.888 0.257s0.312 0.413 0.312 0.725c0 0.222-0.048 0.408-0.145 0.556-0.108 0.156-0.255 0.278-0.429 0.35l-0.006 0.002 0.702 1.328v0.030h-0.718l-0.61-1.189zM32.717 25.854h0.541c0.168 0 0.297-0.042 0.39-0.126 0.086-0.084 0.139-0.201 0.139-0.33 0-0.009-0-0.017-0.001-0.026l0 0.001c0-0.154-0.043-0.274-0.131-0.362s-0.219-0.132-0.4-0.132h-0.538v0.975zM36.775 26.441v1.145h-0.67v-3.251h1.268c0.244 0 0.459 0.045 0.643 0.134 0.186 0.089 0.329 0.216 0.429 0.382 0.099 0.164 0.149 0.35 0.149 0.56 0 0.318-0.11 0.57-0.328 0.754-0.218 0.183-0.519 0.275-0.904 0.275h-0.587zM36.775 25.899h0.598c0.178 0 0.312-0.042 0.404-0.125 0.094-0.084 0.141-0.203 0.141-0.357 0-0.007 0.001-0.016 0.001-0.024 0-0.14-0.053-0.267-0.141-0.363l0 0c-0.094-0.098-0.223-0.149-0.389-0.152h-0.614v1.021zM41.011 26.178h-1.285v0.871h1.509v0.538h-2.178v-3.251h2.174v0.542h-1.505v0.775h1.286v0.524zM44.119 24.878h-0.996v2.708h-0.67v-2.708h-0.982v-0.542h2.648v0.542zM46.458 26.178h-1.285v0.871h1.509v0.538h-2.179v-3.251h2.174v0.542h-1.504v0.775h1.285v0.524zM48.277 26.396h-0.533v1.19h-0.67v-3.251h1.208c0.384 0 0.68 0.086 0.888 0.257s0.312 0.413 0.312 0.725c0 0.222-0.049 0.408-0.145 0.556-0.108 0.156-0.256 0.278-0.429 0.35l-0.006 0.002 0.703 1.328v0.030h-0.718l-0.61-1.189zM47.744 25.854h0.54c0.168 0 0.298-0.042 0.39-0.126 0.086-0.084 0.139-0.201 0.139-0.331 0-0.009-0-0.017-0.001-0.025l0 0.001c0-0.154-0.043-0.274-0.132-0.362-0.086-0.088-0.219-0.132-0.399-0.132h-0.538v0.975zM51.679 26.734c0-0.006 0.001-0.012 0.001-0.019 0-0.11-0.052-0.208-0.134-0.271l-0.001-0.001c-0.089-0.069-0.25-0.14-0.482-0.214-0.214-0.067-0.396-0.142-0.57-0.232l0.019 0.009c-0.37-0.2-0.554-0.469-0.554-0.806 0-0.175 0.050-0.332 0.147-0.469 0.1-0.139 0.242-0.246 0.427-0.324 0.186-0.077 0.395-0.116 0.625-0.116 0.232 0 0.439 0.042 0.621 0.127 0.181 0.084 0.322 0.201 0.421 0.355 0.101 0.152 0.152 0.328 0.152 0.522h-0.67c0-0.149-0.046-0.264-0.14-0.346-0.094-0.084-0.226-0.125-0.395-0.125-0.164 0-0.291 0.035-0.382 0.105-0.083 0.060-0.137 0.156-0.137 0.265 0 0.002 0 0.005 0 0.007v-0c0 0.106 0.053 0.194 0.159 0.266s0.264 0.138 0.471 0.2c0.381 0.114 0.658 0.257 0.833 0.427s0.261 0.381 0.261 0.634c0 0.281-0.107 0.503-0.32 0.663s-0.499 0.239-0.859 0.239c-0.25 0-0.478-0.046-0.683-0.137-0.193-0.082-0.352-0.211-0.469-0.373l-0.002-0.003c-0.1-0.15-0.16-0.335-0.16-0.533 0-0.007 0-0.014 0-0.022l-0 0.001h0.671c0 0.358 0.214 0.538 0.643 0.538 0.159 0 0.283-0.032 0.373-0.096 0.082-0.058 0.134-0.153 0.134-0.26 0-0.004-0-0.009-0-0.013l0 0.001z"></path>
</symbol>
<symbol id="icon-tagcomp" viewBox="0 0 57 32">
<path  d="M26.727 3.165h-0.073c-0.112-0.007-0.224-0.010-0.336-0.012h-0.243c-0.212 0-0.428 0.005-0.642 0.016-0.007-0.001-0.016-0.001-0.024-0.001s-0.017 0-0.025 0.001l0.001-0c-2.059 0.12-3.971 0.635-5.699 1.47l0.090-0.039-0.23 0.111v11.809l0.54-0.183c0.474-0.163 0.978-0.309 1.5-0.445 1.29-0.345 2.775-0.553 4.305-0.573l0.012-0v1.551c-0.193 0.001-0.38 0.006-0.568 0.016h-0.045c-1.212 0.068-2.348 0.25-3.442 0.537l0.12-0.027c-1.503 0.382-2.82 0.91-4.044 1.586l0.087-0.044v-15.145c1.195-0.711 2.578-1.29 4.042-1.665l0.11-0.024c1.173-0.315 2.52-0.499 3.909-0.505h0.231c0.273 0.007 0.539 0.019 0.788 0.038 0.658 0.046 1.31 0.15 1.949 0.311v1.527c-0.544-0.133-1.189-0.234-1.849-0.282l-0.039-0.002-0.039-0.003c-0.132-0.011-0.263-0.022-0.386-0.022zM29.415 4.726c0.339 0.026 0.69 0.038 1.044 0.038 1.464-0.006 2.881-0.198 4.231-0.554l-0.117 0.026c1.502-0.383 2.819-0.912 4.043-1.587l-0.087 0.044v14.875c-1.195 0.71-2.578 1.289-4.042 1.665l-0.11 0.024c-1.173 0.314-2.52 0.498-3.91 0.503h-0.004c-0.029 0-0.062 0-0.096 0-1.020 0-2.010-0.128-2.955-0.368l0.083 0.018v-14.972c0.229 0.053 0.466 0.102 0.706 0.142 0.394 0.067 0.81 0.115 1.214 0.145zM36.985 4.842l-0.54 0.181c-0.496 0.167-0.997 0.316-1.5 0.449-1.344 0.36-2.888 0.569-4.48 0.575h-0.004c-0.352 0-0.676-0.010-0.989-0.030l-0.43-0.028v12.148l0.37 0.032c0.342 0.030 0.696 0.045 1.052 0.045 1.257-0.006 2.473-0.172 3.631-0.48l-0.1 0.023c1.059-0.269 1.977-0.608 2.848-1.031l-0.088 0.039 0.23-0.111v-11.812z"></path>
<path  d="M19.060 24.113c-0.145-0.15-0.348-0.243-0.572-0.243-0.010 0-0.020 0-0.030 0.001l0.001-0c-0.004-0-0.008-0-0.012-0-0.121 0-0.236 0.024-0.34 0.067l0.006-0.002c-0.205 0.082-0.364 0.243-0.442 0.444l-0.002 0.005c-0.043 0.107-0.063 0.22-0.062 0.335v2.023c-0.005 0.142 0.022 0.284 0.079 0.415 0.048 0.104 0.117 0.196 0.203 0.271 0.081 0.068 0.175 0.117 0.277 0.144 0.099 0.027 0.201 0.042 0.302 0.042 0.113 0.001 0.224-0.023 0.326-0.070 0.304-0.135 0.512-0.434 0.512-0.781v-0.226h-0.53v0.18c0 0.004 0 0.008 0 0.012 0 0.060-0.011 0.118-0.032 0.171l0.001-0.003c-0.018 0.045-0.044 0.083-0.077 0.114l-0 0c-0.061 0.047-0.137 0.076-0.221 0.077h-0c-0.009 0.001-0.020 0.002-0.031 0.002-0.089 0-0.168-0.043-0.216-0.11l-0.001-0.001c-0.044-0.071-0.071-0.158-0.071-0.251 0-0.007 0-0.014 0-0.021l-0 0.001v-1.887c-0.003-0.105 0.019-0.208 0.065-0.302 0.049-0.075 0.132-0.124 0.227-0.124 0.011 0 0.022 0.001 0.033 0.002l-0.001-0c0.003-0 0.006-0 0.010-0 0.092 0 0.174 0.045 0.226 0.114l0.001 0.001c0.055 0.071 0.088 0.162 0.088 0.26 0 0.004-0 0.008-0 0.012v-0.001 0.175h0.524v-0.206c0-0.003 0-0.006 0-0.009 0-0.124-0.024-0.243-0.067-0.352l0.002 0.006c-0.041-0.111-0.102-0.205-0.177-0.285l0 0zM22.202 24.091c-0.161-0.137-0.371-0.221-0.601-0.223h-0c-0.108 0-0.215 0.020-0.316 0.057-0.218 0.078-0.391 0.239-0.483 0.443l-0.002 0.005c-0.053 0.123-0.080 0.257-0.077 0.392v1.94c-0.004 0.137 0.023 0.272 0.077 0.397 0.048 0.105 0.117 0.197 0.205 0.271 0.081 0.075 0.176 0.133 0.279 0.171 0.101 0.037 0.208 0.057 0.316 0.057 0.231-0.001 0.442-0.087 0.603-0.229l-0.001 0.001c0.084-0.076 0.152-0.168 0.199-0.271 0.054-0.125 0.081-0.261 0.077-0.397v-1.941c0-0.005 0-0.011 0-0.017 0-0.135-0.029-0.264-0.080-0.381l0.002 0.006c-0.049-0.111-0.117-0.205-0.199-0.283l-0-0zM21.955 26.706c0.001 0.009 0.001 0.019 0.001 0.030 0 0.099-0.041 0.188-0.106 0.251l-0 0c-0.067 0.056-0.154 0.091-0.249 0.091s-0.182-0.034-0.25-0.091l0.001 0c-0.066-0.063-0.106-0.152-0.106-0.25 0-0.011 0-0.022 0.002-0.032l-0 0.001v-1.941c-0.001-0.009-0.001-0.019-0.001-0.030 0-0.098 0.041-0.187 0.106-0.25l0-0c0.067-0.056 0.154-0.091 0.249-0.091s0.182 0.034 0.25 0.091l-0.001-0c0.066 0.063 0.106 0.152 0.106 0.25 0 0.011-0 0.021-0.001 0.032l0-0.001v1.941zM26.329 27.573v-3.675h-0.508l-0.668 1.945h-0.009l-0.674-1.945h-0.503v3.674h0.525v-2.235h0.010l0.514 1.58h0.262l0.518-1.58h0.010v2.235h0.525zM29.311 24.157c-0.081-0.091-0.183-0.16-0.297-0.201-0.108-0.036-0.232-0.057-0.361-0.057-0.007 0-0.014 0-0.021 0h-0.779v3.675h0.524v-1.435h0.269c0.164 0.007 0.326-0.027 0.473-0.1 0.12-0.068 0.217-0.163 0.286-0.278l0.002-0.003c0.060-0.098 0.101-0.206 0.12-0.32 0.018-0.116 0.028-0.249 0.028-0.385 0-0.012-0-0.023-0-0.035l0 0.002c0.005-0.176-0.012-0.353-0.051-0.525-0.037-0.132-0.104-0.246-0.193-0.338l0 0zM29.041 25.277c-0.002 0.070-0.020 0.136-0.050 0.194l0.001-0.003c-0.030 0.056-0.077 0.101-0.133 0.128l-0.002 0.001c-0.065 0.030-0.14 0.047-0.22 0.047-0.010 0-0.019-0-0.028-0.001l0.001 0h-0.239v-1.249h0.27c0.008-0 0.016-0.001 0.025-0.001 0.077 0 0.149 0.017 0.214 0.048l-0.003-0.001c0.054 0.031 0.096 0.078 0.122 0.134l0.001 0.002c0.029 0.065 0.044 0.134 0.046 0.205v0.244c0 0.085 0.005 0.174 0 0.252h-0.005zM31.791 23.899h-0.429l-0.81 3.675h0.524l0.154-0.789h0.714l0.154 0.789h0.523l-0.829-3.675zM31.308 26.283l0.258-1.332h0.010l0.256 1.332h-0.523zM35.173 26.112h-0.010l-0.79-2.213h-0.503v3.675h0.523v-2.21h0.011l0.8 2.209h0.493v-3.674h-0.523v2.213zM38.372 23.899l-0.421 1.461h-0.011l-0.421-1.461h-0.554l0.719 2.122v1.553h0.524v-1.553l0.719-2.121h-0.555zM17.6 28.611h0.252v0.708h0.171v-0.708h0.251v-0.145h-0.674v0.146zM19.721 28.465l-0.331 0.853h0.182l0.070-0.194h0.34l0.073 0.194h0.187l-0.339-0.853h-0.182zM19.694 28.981l0.116-0.316 0.116 0.316h-0.232zM21.818 29.004h0.197v0.11c-0.055 0.044-0.126 0.072-0.203 0.072h-0c-0.004 0-0.008 0-0.012 0-0.068 0-0.129-0.032-0.169-0.081l-0-0c-0.040-0.057-0.063-0.127-0.063-0.203 0-0.007 0-0.013 0.001-0.020l-0 0.001c0-0.19 0.082-0.285 0.245-0.285 0.006-0.001 0.012-0.001 0.018-0.001 0.084 0 0.155 0.058 0.174 0.136l0 0.001 0.169-0.033c-0.036-0.166-0.156-0.251-0.362-0.251-0.003-0-0.007-0-0.011-0-0.11 0-0.211 0.042-0.287 0.11l0-0c-0.076 0.075-0.124 0.18-0.124 0.296 0 0.011 0 0.022 0.001 0.033l-0-0.001c-0 0.006-0 0.013-0 0.020 0 0.115 0.041 0.22 0.11 0.301l-0.001-0.001c0.075 0.078 0.181 0.126 0.297 0.126 0.009 0 0.018-0 0.027-0.001l-0.001 0c0.004 0 0.009 0 0.014 0 0.134 0 0.257-0.052 0.348-0.137l-0 0v-0.336h-0.37v0.144zM23.959 28.465h-0.173v0.853h0.597v-0.145h-0.425v-0.708zM25.77 28.465h-0.173v0.853h0.173v-0.853zM27.539 29.035l-0.349-0.57h-0.167v0.853h0.16v-0.557l0.343 0.557h0.172v-0.853h-0.158v0.57zM29.14 28.942h0.425v-0.145h-0.425v-0.187h0.457v-0.146h-0.63v0.853h0.647v-0.145h-0.475v-0.231zM33.020 28.802h-0.336v-0.336h-0.171v0.853h0.171v-0.373h0.336v0.373h0.172v-0.853h-0.172v0.337zM34.629 28.942h0.427v-0.145h-0.427v-0.187h0.459v-0.146h-0.629v0.853h0.646v-0.145h-0.475v-0.231zM36.812 28.943c0.149-0.023 0.224-0.102 0.224-0.237 0.001-0.007 0.001-0.015 0.001-0.024 0-0.068-0.033-0.128-0.085-0.166l-0.001-0c-0.063-0.032-0.137-0.051-0.216-0.051-0.012 0-0.023 0-0.035 0.001l0.002-0h-0.362v0.853h0.172v-0.357h0.034c0.004-0 0.009-0 0.014-0 0.034 0 0.066 0.007 0.094 0.020l-0.001-0.001c0.025 0.015 0.046 0.037 0.061 0.062l0.186 0.271h0.205l-0.104-0.166c-0.047-0.083-0.111-0.152-0.187-0.203l-0.002-0.001zM36.639 28.825h-0.126v-0.214h0.135c0.011-0.001 0.023-0.001 0.036-0.001 0.049 0 0.097 0.008 0.141 0.023l-0.003-0.001c0.023 0.021 0.037 0.050 0.037 0.083 0 0.037-0.018 0.069-0.045 0.090l-0 0c-0.043 0.014-0.092 0.021-0.142 0.021-0.011 0-0.022-0-0.033-0.001l0.002 0zM38.459 28.942h0.425v-0.145h-0.425v-0.187h0.459v-0.146h-0.631v0.853h0.647v-0.145h-0.475v-0.231z"></path>
</symbol>
<symbol id="icon-circomp" viewBox="0 0 57 32">
<path  d="M19.417 26.187c0.009 0 0.017 0.002 0.025 0.005s0.015 0.007 0.021 0.013l-0-0 0.116 0.111c-0.091 0.090-0.202 0.162-0.327 0.211-0.129 0.048-0.278 0.076-0.434 0.076-0.011 0-0.021-0-0.032-0l0.002 0c-0.149 0.003-0.298-0.021-0.436-0.071-0.128-0.046-0.237-0.114-0.33-0.2l0.001 0.001c-0.090-0.085-0.161-0.188-0.21-0.302l-0.002-0.006c-0.047-0.114-0.075-0.246-0.075-0.385 0-0.004 0-0.008 0-0.012v0.001c-0-0.006-0-0.013-0-0.020 0-0.272 0.118-0.516 0.305-0.684l0.001-0.001c0.099-0.087 0.218-0.155 0.349-0.201 0.143-0.048 0.296-0.072 0.45-0.070 0.008-0 0.018-0 0.028-0 0.139 0 0.273 0.024 0.398 0.067l-0.009-0.003c0.115 0.044 0.221 0.104 0.313 0.179l-0.098 0.118c-0.007 0.008-0.015 0.015-0.024 0.021l-0 0c-0.010 0.006-0.021 0.009-0.034 0.009-0.002 0-0.004-0-0.006-0l0 0c-0.016-0.001-0.030-0.005-0.043-0.012l0 0-0.052-0.032-0.073-0.041c-0.066-0.032-0.144-0.057-0.225-0.070l-0.005-0.001c-0.048-0.008-0.104-0.013-0.161-0.013-0.004 0-0.009 0-0.013 0h0.001c-0.003-0-0.007-0-0.011-0-0.112 0-0.219 0.020-0.319 0.055l0.007-0.002c-0.098 0.034-0.182 0.085-0.254 0.15l0.001-0.001c-0.073 0.068-0.128 0.149-0.164 0.237-0.038 0.089-0.059 0.193-0.059 0.302 0 0.004 0 0.008 0 0.011v-0.001c-0 0.004-0 0.008-0 0.013 0 0.11 0.022 0.215 0.061 0.311l-0.002-0.005c0.036 0.087 0.091 0.167 0.162 0.236 0.067 0.064 0.149 0.115 0.242 0.147 0.095 0.034 0.196 0.051 0.299 0.051 0.059 0.001 0.119-0.003 0.178-0.010 0.148-0.015 0.28-0.074 0.385-0.164l-0.001 0.001c0.015-0.012 0.034-0.020 0.055-0.020h0zM22.775 25.629c0 0.003 0 0.008 0 0.012 0 0.138-0.029 0.269-0.081 0.387l0.002-0.006c-0.052 0.12-0.126 0.222-0.218 0.304l-0.001 0.001c-0.097 0.086-0.211 0.154-0.337 0.198l-0.007 0.002c-0.132 0.045-0.284 0.071-0.442 0.071s-0.31-0.026-0.452-0.074l0.010 0.003c-0.132-0.047-0.245-0.115-0.342-0.202l0.001 0.001c-0.093-0.084-0.168-0.187-0.219-0.303l-0.002-0.006c-0.050-0.116-0.078-0.251-0.078-0.393s0.029-0.277 0.081-0.4l-0.003 0.007c0.050-0.115 0.125-0.22 0.221-0.309 0.097-0.085 0.213-0.15 0.341-0.194 0.132-0.046 0.284-0.072 0.442-0.072s0.31 0.026 0.452 0.075l-0.010-0.003c0.129 0.045 0.246 0.114 0.343 0.201 0.096 0.088 0.171 0.192 0.22 0.305 0.054 0.127 0.081 0.261 0.078 0.396zM22.47 25.629c0-0.005 0-0.011 0-0.017 0-0.108-0.020-0.211-0.058-0.305l0.002 0.006c-0.071-0.182-0.216-0.322-0.396-0.384l-0.005-0.001c-0.096-0.033-0.206-0.052-0.321-0.052s-0.225 0.019-0.329 0.054l0.007-0.002c-0.096 0.034-0.178 0.085-0.246 0.15l0-0c-0.068 0.064-0.122 0.143-0.156 0.232l-0.001 0.004c-0.035 0.094-0.055 0.202-0.055 0.316s0.020 0.222 0.058 0.322l-0.002-0.006c0.071 0.182 0.217 0.322 0.399 0.383l0.005 0.001c0.207 0.068 0.435 0.068 0.643 0 0.093-0.033 0.177-0.083 0.245-0.148 0.070-0.069 0.123-0.149 0.156-0.236 0.039-0.101 0.058-0.209 0.055-0.316zM25.067 25.96l0.031 0.070c0.011-0.025 0.021-0.048 0.033-0.070 0.013-0.027 0.026-0.050 0.039-0.072l-0.002 0.003 0.743-1.174c0.015-0.020 0.028-0.033 0.043-0.037s0.033-0.007 0.051-0.007c0.003 0 0.007 0 0.010 0l-0-0h0.22v1.909h-0.26v-1.463c-0.001-0.010-0.001-0.021-0.001-0.033s0-0.023 0.001-0.035l-0 0.002-0.748 1.19c-0.010 0.018-0.025 0.033-0.043 0.043l-0.001 0c-0.018 0.010-0.040 0.016-0.063 0.016-0 0-0.001 0-0.001 0h-0.042c-0 0-0.001 0-0.002 0-0.023 0-0.044-0.006-0.063-0.016l0.001 0c-0.018-0.010-0.033-0.025-0.043-0.043l-0-0.001-0.77-1.198v1.532h-0.251v-1.905h0.219c0.003-0 0.007-0 0.010-0 0.018 0 0.036 0.002 0.052 0.007l-0.001-0c0.018 0.008 0.032 0.021 0.041 0.037l0.759 1.175c0.014 0.020 0.026 0.042 0.037 0.066l0.001 0.003zM27.863 25.865v0.715h-0.29v-1.906h0.649c0.123-0.002 0.244 0.012 0.362 0.042 0.094 0.023 0.181 0.064 0.256 0.119 0.062 0.049 0.111 0.112 0.144 0.184l0.001 0.003c0.035 0.078 0.051 0.161 0.050 0.244 0 0.003 0 0.008 0 0.012 0 0.172-0.082 0.325-0.209 0.422l-0.001 0.001c-0.075 0.057-0.163 0.1-0.258 0.126-0.098 0.028-0.211 0.044-0.327 0.044-0.008 0-0.016-0-0.024-0l-0.351-0.005zM27.863 25.66h0.352c0.076 0.001 0.153-0.009 0.226-0.029 0.062-0.018 0.116-0.046 0.164-0.083l-0.001 0.001c0.082-0.068 0.133-0.169 0.133-0.282 0-0.002 0-0.003-0-0.005v0c0-0.006 0.001-0.013 0.001-0.021 0-0.049-0.011-0.095-0.030-0.137l0.001 0.002c-0.024-0.052-0.059-0.095-0.101-0.13l-0.001-0.001c-0.097-0.065-0.217-0.104-0.345-0.104-0.016 0-0.032 0.001-0.048 0.002l0.002-0h-0.352v0.786zM31.772 26.582h-0.229c-0.001 0-0.003 0-0.004 0-0.022 0-0.043-0.007-0.060-0.018l0 0c-0.016-0.011-0.029-0.026-0.038-0.044l-0-0.001-0.197-0.461h-0.994l-0.205 0.461c-0.018 0.037-0.055 0.062-0.099 0.062-0.001 0-0.002 0-0.003-0h-0.23l0.873-1.909h0.302l0.884 1.909zM30.332 25.874h0.82l-0.346-0.777c-0.027-0.059-0.048-0.118-0.066-0.179l-0.034 0.1c-0.010 0.030-0.021 0.059-0.032 0.081l-0.343 0.775zM33.029 24.683c0.017 0.008 0.032 0.020 0.043 0.034l1.273 1.439v-1.482h0.26v1.909h-0.145c-0.001 0-0.002 0-0.003 0-0.020 0-0.040-0.004-0.057-0.012l0.001 0c-0.018-0.009-0.034-0.021-0.047-0.035l-0-0-1.27-1.438c0.001 0.010 0.001 0.021 0.001 0.033s-0 0.023-0.001 0.034l0-0.002v1.419h-0.26v-1.909h0.154c0.018 0 0.036 0.003 0.052 0.009zM36.748 25.823v0.758h-0.291v-0.757l-0.804-1.15h0.26c0.002-0 0.004-0 0.006-0 0.021 0 0.040 0.006 0.056 0.016l-0-0c0.016 0.013 0.029 0.027 0.039 0.043l0.503 0.742c0.020 0.032 0.038 0.061 0.052 0.089s0.027 0.054 0.037 0.081l0.037-0.082c0.014-0.030 0.031-0.059 0.050-0.087l0.496-0.747c0.011-0.015 0.023-0.029 0.037-0.040l0-0c0.016-0.012 0.036-0.019 0.057-0.019 0.002 0 0.004 0 0.006 0h0.263l-0.805 1.155zM24.923 21.47c0.126 0.014 0.254 0.025 0.384 0.035 1.962-0.763 3.622-2.011 4.772-3.588s1.739-3.415 1.694-5.282l-2.162-1.878c0.439 1.988 0.234 4.043-0.594 5.935s-2.245 3.547-4.094 4.779z"></path>
<path  d="M24.151 21.382l0.058 0.011c1.975-1.228 3.481-2.942 4.323-4.922s0.981-4.133 0.4-6.181l-3.080-2.676c1.245 2.199 1.747 4.661 1.445 7.099-0.301 2.437-1.392 4.75-3.147 6.669zM34.596 14.841c-0.523 2.052-1.794 3.902-3.623 5.276-0.5 0.38-1.064 0.737-1.658 1.043l-0.065 0.030c1.49-0.38 2.859-1.053 4.003-1.966s2.030-2.042 2.592-3.3l-1.249-1.084z"></path>
<path  d="M34.106 14.539l-1.778-1.545c-0.034 1.762-0.611 3.483-1.669 4.986s-2.562 2.732-4.352 3.559h0.009c0.399 0 0.797-0.021 1.194-0.062 1.673-0.594 3.151-1.538 4.302-2.748s1.94-2.65 2.295-4.189zM24.409 6.485l-2.122-1.845c-1.897 0.637-3.527 1.756-4.68 3.212s-1.772 3.179-1.778 4.946c0.007 1.952 0.763 3.846 2.149 5.383 1.385 1.536 3.321 2.628 5.501 3.101 1.946-2.060 3.085-4.605 3.252-7.266s-0.647-5.299-2.323-7.531zM39.008 14.254c-0.007-2.316-1.070-4.535-2.955-6.173s-4.439-2.561-7.105-2.567c-0.006 0-0.014-0-0.021-0-1.281 0-2.512 0.213-3.66 0.606l0.079-0.024 12.989 11.286c0.423-0.919 0.671-1.995 0.672-3.128v-0z"></path>
</symbol>
<symbol id="icon-brand" viewBox="0 0 57 32">
<path  d="M14.27 23.859c0.13 0.147 0.199 0.332 0.196 0.521 0.001 0.012 0.001 0.026 0.001 0.039 0 0.117-0.026 0.227-0.073 0.326l0.002-0.005c-0.056 0.119-0.135 0.218-0.232 0.296l-0.002 0.001c-0.221 0.152-0.494 0.243-0.789 0.243-0.032 0-0.064-0.001-0.096-0.003l0.004 0h-1.549v-3.301h1.517c0.027-0.002 0.058-0.003 0.090-0.003 0.279 0 0.539 0.083 0.756 0.225l-0.005-0.003c0.098 0.076 0.176 0.171 0.227 0.277 0.051 0.108 0.074 0.224 0.068 0.341 0.009 0.181-0.053 0.361-0.176 0.505-0.118 0.131-0.281 0.222-0.462 0.258 0.205 0.034 0.391 0.134 0.523 0.283zM12.454 23.361h0.649c0.147 0.010 0.293-0.029 0.412-0.11 0.047-0.039 0.085-0.088 0.109-0.144l0.001-0.003c0.019-0.043 0.030-0.092 0.030-0.145 0-0.011-0.001-0.022-0.001-0.033l0 0.001c0.001-0.008 0.001-0.018 0.001-0.028 0-0.053-0.011-0.104-0.031-0.15l0.001 0.002c-0.025-0.058-0.062-0.108-0.108-0.147l-0.001-0c-0.105-0.071-0.234-0.113-0.373-0.113-0.018 0-0.036 0.001-0.054 0.002l0.002-0h-0.638v0.867zM13.578 24.627c0.051-0.040 0.091-0.091 0.118-0.149l0.001-0.003c0.022-0.046 0.034-0.101 0.034-0.158 0-0.009-0-0.018-0.001-0.027l0 0.001c0-0.007 0.001-0.016 0.001-0.024 0-0.059-0.013-0.115-0.037-0.165l0.001 0.002c-0.029-0.061-0.070-0.112-0.121-0.151l-0.001-0.001c-0.112-0.076-0.249-0.121-0.397-0.121-0.015 0-0.030 0-0.045 0.001l0.002-0h-0.68v0.908h0.689c0.155 0.008 0.308-0.032 0.435-0.115zM17.371 25.278l-0.843-1.291h-0.317v1.291h-0.726v-3.302h1.374c0.029-0.002 0.064-0.003 0.098-0.003 0.323 0 0.622 0.107 0.862 0.287l-0.004-0.003c0.192 0.179 0.308 0.415 0.327 0.666 0.002 0.021 0.002 0.045 0.002 0.069 0 0.241-0.086 0.461-0.228 0.633l0.001-0.002c-0.171 0.175-0.396 0.296-0.649 0.335l-0.006 0.001 0.899 1.319h-0.789zM16.21 23.538h0.594c0.412 0 0.619-0.166 0.619-0.5 0-0.008 0.001-0.017 0.001-0.027 0-0.063-0.013-0.122-0.035-0.176l0.001 0.003c-0.028-0.067-0.068-0.124-0.118-0.171l-0-0c-0.113-0.085-0.255-0.136-0.41-0.136-0.020 0-0.040 0.001-0.060 0.003l0.003-0h-0.601l0.007 1.005zM21.339 24.613h-1.446l-0.255 0.665h-0.761l1.328-3.265h0.823l1.323 3.265h-0.761l-0.25-0.665zM21.145 24.114l-0.529-1.394-0.529 1.394h1.057zM26.305 25.278h-0.72l-1.616-2.245v2.245h-0.719v-3.302h0.719l1.616 2.259v-2.259h0.72v3.302zM30.418 24.488c-0.149 0.249-0.376 0.452-0.652 0.582-0.28 0.132-0.608 0.209-0.955 0.209-0.021 0-0.041-0-0.062-0.001l0.003 0h-1.282v-3.302h1.283c0.018-0 0.039-0.001 0.060-0.001 0.345 0 0.673 0.075 0.968 0.209l-0.015-0.006c0.276 0.128 0.503 0.329 0.652 0.576 0.148 0.269 0.226 0.565 0.226 0.867s-0.077 0.597-0.226 0.866zM29.593 24.409c0.196-0.205 0.317-0.482 0.318-0.788v-0c0-0.289-0.113-0.569-0.318-0.788-0.223-0.177-0.509-0.284-0.82-0.284-0.029 0-0.058 0.001-0.086 0.003l0.004-0h-0.5v2.138h0.5c0.025 0.002 0.054 0.003 0.083 0.003 0.311 0 0.596-0.107 0.822-0.285l-0.003 0.002zM21.79 3.609s9.3 3.215 9.103 7.867v7.869s-9.294-3.216-9.1-7.869l-0.003-7.867zM39.179 17.503c1.757-1.107 3.788-1.792 5.909-1.994v-2.464c-2.444 0.863-4.517 2.427-5.909 4.458z"></path>
<path  d="M38.124 18.245c1.437-2.651 3.93-4.696 6.964-5.716v-7.098s-13.245 4.58-12.965 11.205v11.203s0.59-0.205 1.519-0.589c0-0.358 0-0.719 0.043-1.083 0.274-3.075 1.87-5.925 4.439-7.924z"></path>
<path  d="M36.864 22.407c0.069-0.777 0.225-1.546 0.463-2.294-1.599 1.725-2.568 3.867-2.769 6.122-0.020 0.213-0.030 0.426-0.036 0.645 1.105-0.483 1.942-0.895 2.761-1.334l-0.214 0.105c-0.235-1.067-0.304-2.159-0.206-3.244zM37.391 22.447c-0.026 0.273-0.041 0.589-0.041 0.909 0 0.718 0.074 1.419 0.216 2.094l-0.012-0.066c3.619-1.983 7.685-5.046 7.528-8.748v-0.323c-2.586 0.265-5.004 1.3-6.885 2.946-0.415 0.932-0.702 2.014-0.804 3.148l-0.003 0.040z"></path>
</symbol>
<symbol id="icon-kvadrcomp" viewBox="0 0 57 32">
<path  d="M28.493 14.618c-0.203-0.262-0.326-0.596-0.326-0.958 0-0.036 0.001-0.071 0.004-0.107l-0 0.005v-1.538c0-0.471 0.107-0.829 0.321-1.075 0.213-0.245 0.581-0.367 1.101-0.366 0.489 0 0.837 0.105 1.042 0.313 0.224 0.266 0.333 0.591 0.308 0.919v0.362h-0.875v-0.366c0.003-0.119-0.005-0.239-0.026-0.358-0.015-0.087-0.060-0.161-0.125-0.212l-0.001-0.001c-0.079-0.053-0.175-0.084-0.279-0.084-0.013 0-0.026 0.001-0.039 0.001l0.002-0c-0.011-0.001-0.025-0.001-0.038-0.001-0.11 0-0.212 0.033-0.297 0.090l0.002-0.001c-0.072 0.058-0.124 0.139-0.145 0.232l-0 0.003c-0.022 0.105-0.035 0.226-0.035 0.351 0 0.010 0 0.021 0 0.031l-0-0.002v1.866c-0.014 0.18 0.025 0.36 0.112 0.524 0.045 0.056 0.104 0.1 0.172 0.126l0.003 0.001c0.051 0.020 0.111 0.032 0.173 0.032 0.019 0 0.037-0.001 0.055-0.003l-0.002 0c0.011 0.001 0.024 0.001 0.037 0.001 0.102 0 0.197-0.032 0.274-0.087l-0.002 0.001c0.068-0.056 0.115-0.135 0.13-0.224l0-0.002c0.020-0.124 0.030-0.249 0.027-0.374v-0.379h0.875v0.346c0.002 0.027 0.003 0.059 0.003 0.091 0 0.332-0.115 0.638-0.308 0.878l0.002-0.003c-0.201 0.228-0.544 0.342-1.047 0.342s-0.884-0.122-1.1-0.375zM32.137 14.634c-0.221-0.24-0.332-0.588-0.332-1.050v-1.618c0-0.457 0.11-0.803 0.332-1.037s0.59-0.351 1.109-0.35c0.515 0 0.882 0.117 1.103 0.35 0.221 0.235 0.333 0.58 0.333 1.037v1.617c0 0.457-0.112 0.807-0.337 1.049s-0.59 0.361-1.1 0.361-0.886-0.122-1.109-0.359zM33.653 14.245c0.079-0.149 0.115-0.314 0.105-0.478v-1.981c0.001-0.016 0.002-0.035 0.002-0.053 0-0.152-0.039-0.296-0.107-0.421l0.002 0.005c-0.046-0.057-0.107-0.101-0.176-0.128l-0.003-0.001c-0.051-0.020-0.11-0.031-0.171-0.031-0.021 0-0.042 0.001-0.062 0.004l0.002-0c-0.018-0.002-0.038-0.004-0.059-0.004-0.062 0-0.121 0.011-0.176 0.032l0.003-0.001c-0.072 0.027-0.133 0.071-0.179 0.128l-0.001 0.001c-0.080 0.147-0.116 0.308-0.105 0.469v1.99c-0.011 0.165 0.025 0.329 0.105 0.479 0.051 0.050 0.114 0.091 0.185 0.118 0.067 0.027 0.144 0.042 0.225 0.042s0.158-0.016 0.229-0.044l-0.004 0.001c0.071-0.028 0.133-0.068 0.185-0.118v-0.010zM35.735 10.626h0.942l0.708 2.984 0.725-2.984h0.916l0.093 4.307h-0.678l-0.073-2.994-0.699 2.994h-0.544l-0.724-3.005-0.067 3.005h-0.685l0.085-4.307zM40.176 10.626h1.468c0.845 0 1.268 0.407 1.268 1.223 0 0.781-0.445 1.171-1.335 1.17h-0.5v1.914h-0.906l0.005-4.308zM41.43 12.467c0.090 0.010 0.18 0.003 0.267-0.021 0.085-0.023 0.165-0.062 0.231-0.115 0.104-0.146 0.15-0.316 0.131-0.486 0.001-0.014 0.001-0.031 0.001-0.047 0-0.122-0.016-0.241-0.047-0.353l0.002 0.009c-0.014-0.046-0.037-0.085-0.067-0.119l0 0c-0.032-0.035-0.070-0.064-0.112-0.085l-0.002-0.001c-0.105-0.045-0.228-0.071-0.357-0.071-0.017 0-0.033 0-0.050 0.001l0.002-0h-0.351v1.287h0.352zM44.219 10.626h0.973l0.998 4.307h-0.845l-0.197-0.993h-0.868l-0.203 0.993h-0.857l0.998-4.307zM45.050 13.442l-0.339-1.808-0.339 1.808h0.677zM46.996 10.626h0.635l1.213 2.457v-2.457h0.752v4.307h-0.603l-1.221-2.565v2.565h-0.777l0.002-4.307zM51.357 13.291l-1.009-2.659h0.85l0.616 1.708 0.578-1.708h0.832l-0.997 2.659v1.642h-0.869v-1.643zM29.892 16.817v0.225h-0.739v1.75h-0.31v-1.75h-0.743v-0.225h1.792zM32.21 18.793h-0.239c-0.002 0-0.004 0-0.007 0-0.023 0-0.044-0.007-0.061-0.019l0 0c-0.017-0.011-0.031-0.026-0.039-0.045l-0-0.001-0.214-0.469h-1.026l-0.213 0.469c-0.007 0.021-0.018 0.039-0.033 0.053l-0 0c-0.017 0.012-0.039 0.019-0.062 0.019-0.002 0-0.004-0-0.006-0h-0.239l0.906-1.975h0.315l0.917 1.968zM30.709 18.059h0.855l-0.363-0.804c-0.023-0.051-0.046-0.112-0.064-0.176l-0.003-0.010c-0.013 0.037-0.023 0.074-0.034 0.105l-0.033 0.083-0.358 0.803zM33.771 18.598c0.057 0.003 0.114 0.003 0.171 0 0.049-0.004 0.097-0.012 0.145-0.023 0.044-0.009 0.088-0.021 0.131-0.036 0.040-0.014 0.080-0.031 0.121-0.049v-0.444h-0.362c-0.001 0-0.002 0-0.003 0-0.017 0-0.033-0.006-0.046-0.016l0 0c-0.006-0.004-0.010-0.010-0.014-0.016l-0-0c-0.003-0.005-0.004-0.011-0.004-0.018 0-0.001 0-0.001 0-0.002v0-0.151h0.703v0.757c-0.11 0.068-0.237 0.123-0.372 0.158l-0.010 0.002c-0.075 0.019-0.15 0.033-0.227 0.041-0.088 0.009-0.176 0.012-0.265 0.012-0.003 0-0.007 0-0.011 0-0.159 0-0.312-0.027-0.455-0.077l0.010 0.003c-0.14-0.049-0.26-0.119-0.364-0.208l0.002 0.001c-0.097-0.086-0.176-0.19-0.231-0.307l-0.002-0.006c-0.053-0.117-0.083-0.253-0.083-0.397 0-0.004 0-0.009 0-0.013v0.001c-0-0.004-0-0.008-0-0.012 0-0.145 0.030-0.283 0.084-0.407l-0.003 0.007c0.052-0.117 0.132-0.224 0.234-0.313 0.103-0.089 0.227-0.158 0.363-0.205 0.155-0.051 0.32-0.076 0.485-0.074 0.084 0 0.169 0.005 0.252 0.017 0.074 0.011 0.146 0.027 0.215 0.050 0.064 0.020 0.124 0.047 0.181 0.078 0.055 0.031 0.108 0.065 0.158 0.103l-0.087 0.122c-0.007 0.011-0.017 0.020-0.029 0.026l-0 0c-0.012 0.007-0.026 0.010-0.042 0.011h-0c-0.021-0-0.040-0.006-0.057-0.016l0.001 0c-0.037-0.017-0.066-0.033-0.094-0.050l0.005 0.003c-0.034-0.019-0.074-0.037-0.115-0.052l-0.006-0.002c-0.046-0.017-0.102-0.032-0.16-0.043l-0.007-0.001c-0.065-0.011-0.141-0.017-0.218-0.017-0.004 0-0.008 0-0.013 0h0.001c-0.003-0-0.007-0-0.011-0-0.121 0-0.238 0.020-0.346 0.057l0.008-0.002c-0.101 0.035-0.192 0.088-0.267 0.156-0.072 0.067-0.129 0.149-0.166 0.241l-0.002 0.005c-0.038 0.098-0.061 0.211-0.061 0.329s0.022 0.232 0.063 0.336l-0.002-0.006c0.039 0.093 0.101 0.178 0.181 0.249 0.074 0.068 0.164 0.121 0.264 0.156 0.115 0.034 0.237 0.047 0.359 0.039zM36.659 18.567h0.989v0.225h-1.291v-1.975h0.309l-0.007 1.75zM38.677 18.793h-0.309v-1.975h0.309v1.975zM39.83 16.827c0.019 0.009 0.034 0.021 0.047 0.036l0 0 1.324 1.489c-0.001-0.011-0.001-0.023-0.001-0.035s0-0.025 0.001-0.037l-0 0.002v-1.472h0.27v1.984h-0.156c-0.003 0-0.007 0-0.010 0-0.021 0-0.040-0.004-0.058-0.012l0.001 0c-0.019-0.010-0.035-0.022-0.048-0.037l-0-0-1.323-1.488v1.536h-0.259v-1.975h0.161c0.018 0 0.035 0.003 0.051 0.009zM43.753 16.817v0.217h-1.098v0.652h0.89v0.21h-0.89v0.674h1.098v0.218h-1.417v-1.971h1.417zM11.286 4.617l13.757 3.372v11.818l-13.757-3.371v-11.82zM10.404 3.609v13.401l15.52 3.806v-13.399l-15.52-3.807z"></path>
<path  d="M18.722 27.036l-15.522-3.809v-13.399l15.522 3.807v13.401z"></path>
<path  d="M10.661 4.465l13.578 3.33-5.774 4.987-13.579-3.332 5.776-4.986zM10.404 3.609l-7.204 6.219 15.522 3.808 7.202-6.22-15.52-3.807zM19.595 26.282l6.329-5.466-6.33-1.552v7.019z"></path>
</symbol>
<symbol id="icon-yaco" viewBox="0 0 57 32">
<path  d="M20.267 3.733l3.738 3.538-6.938-0.004v17.167h18.133v-6.564l3.733 3.534v-17.671h-18.667zM35.036 17.455l-10.597-10.032h10.597v10.032zM31.746 21.923h-11.81v-11.545h0.835v10.763h10.975v0.781zM22.725 26.72l-0.436 0.899-0.436-0.899h-0.366l0.637 1.198v0.698h0.331v-0.698l0.635-1.198h-0.364zM23.274 28.616l0.154-0.442h0.734l0.155 0.442h0.344l-0.717-1.896h-0.296l-0.716 1.896h0.342zM23.794 27.123l0.275 0.786h-0.549l0.275-0.787zM25.531 27.863c-0.045 0.067-0.071 0.149-0.071 0.238 0 0.001 0 0.002 0 0.003v-0c0 0.16 0.056 0.29 0.168 0.389s0.263 0.149 0.45 0.149c0.188 0 0.349-0.051 0.485-0.153l0.107 0.126h0.367l-0.278-0.33c0.109-0.149 0.164-0.341 0.164-0.574h-0.275c0 0.128-0.027 0.244-0.079 0.348l-0.366-0.432 0.129-0.094c0.078-0.053 0.144-0.119 0.195-0.195l0.002-0.003c0.038-0.061 0.060-0.136 0.060-0.216 0-0.001 0-0.002 0-0.003v0c0-0.002 0-0.005 0-0.007 0-0.117-0.051-0.221-0.132-0.293l-0-0c-0.084-0.076-0.197-0.123-0.32-0.123-0.007 0-0.013 0-0.020 0l0.001-0c-0.153 0-0.274 0.044-0.364 0.13s-0.135 0.203-0.135 0.352c0 0.061 0.014 0.123 0.043 0.189 0.030 0.065 0.082 0.144 0.155 0.237-0.14 0.101-0.235 0.188-0.282 0.261zM26.387 28.283c-0.081 0.066-0.185 0.106-0.299 0.107h-0c-0.005 0-0.010 0-0.015 0-0.082 0-0.156-0.031-0.212-0.083l0 0c-0.052-0.052-0.085-0.123-0.085-0.203 0-0.004 0-0.007 0-0.011l-0 0.001c0-0.101 0.052-0.192 0.156-0.271l0.041-0.029 0.414 0.489zM26.047 27.443c-0.090-0.11-0.134-0.202-0.134-0.275 0-0.063 0.019-0.116 0.055-0.157 0.034-0.039 0.084-0.063 0.139-0.063 0.003 0 0.005 0 0.008 0h-0c0.002-0 0.004-0 0.007-0 0.052 0 0.1 0.020 0.135 0.054l-0-0c0.037 0.035 0.056 0.077 0.056 0.126 0 0.002 0 0.005 0 0.007 0 0.071-0.031 0.134-0.080 0.177l-0 0-0.041 0.032-0.145 0.099zM29.133 28.473c0.13-0.114 0.205-0.272 0.224-0.474h-0.328c-0.018 0.135-0.059 0.232-0.124 0.29s-0.163 0.087-0.292 0.087c-0.141 0-0.249-0.054-0.323-0.162s-0.11-0.264-0.11-0.469v-0.167c0.002-0.203 0.041-0.355 0.117-0.46 0.077-0.105 0.188-0.157 0.331-0.157 0.123 0 0.217 0.030 0.28 0.091s0.104 0.158 0.12 0.294h0.328c-0.021-0.207-0.095-0.368-0.222-0.482s-0.296-0.171-0.506-0.171c-0.155 0-0.292 0.037-0.411 0.111-0.119 0.076-0.213 0.183-0.27 0.31l-0.002 0.005c-0.060 0.133-0.096 0.288-0.096 0.451 0 0.008 0 0.016 0 0.023l-0-0.001v0.177c0.003 0.174 0.035 0.327 0.098 0.46s0.151 0.234 0.266 0.306c0.116 0.071 0.249 0.107 0.4 0.107 0.216 0 0.389-0.056 0.519-0.169zM31.069 28.207c0.064-0.141 0.097-0.304 0.097-0.49v-0.105c0-0.006 0-0.013 0-0.020 0-0.169-0.036-0.329-0.102-0.473l0.003 0.007c-0.060-0.134-0.156-0.243-0.274-0.318l-0.003-0.002c-0.119-0.075-0.256-0.112-0.411-0.112s-0.291 0.037-0.411 0.113c-0.119 0.075-0.211 0.182-0.277 0.324-0.062 0.137-0.098 0.297-0.098 0.466 0 0.008 0 0.016 0 0.025l-0-0.001v0.107c0.001 0.181 0.034 0.341 0.099 0.48 0.066 0.139 0.159 0.246 0.279 0.322 0.121 0.075 0.258 0.112 0.411 0.112 0.156 0 0.293-0.037 0.412-0.112 0.119-0.076 0.212-0.183 0.276-0.323zM30.716 27.135c0.080 0.112 0.119 0.274 0.119 0.484v0.099c0 0.213-0.039 0.376-0.118 0.487-0.078 0.111-0.19 0.167-0.336 0.167-0.004 0-0.009 0-0.014 0-0.134 0-0.253-0.067-0.324-0.17l-0.001-0.001c-0.081-0.114-0.121-0.275-0.121-0.483v-0.109c0.002-0.204 0.043-0.362 0.122-0.473 0.071-0.102 0.188-0.168 0.321-0.168 0.005 0 0.010 0 0.014 0l-0.001-0c0.146 0 0.259 0.056 0.338 0.168z"></path>
</symbol>
</defs>
</svg>
</defs>
</svg>

